<?xml version="1.0" encoding="utf-8" standalone="no"?>
<!DOCTYPE svg PUBLIC "-//W3C//DTD SVG 1.1//EN"
  "http://www.w3.org/Graphics/SVG/1.1/DTD/svg11.dtd">
<svg xmlns:xlink="http://www.w3.org/1999/xlink" width="391.5125pt" height="180.345744pt" viewBox="0 0 391.5125 180.345744" xmlns="http://www.w3.org/2000/svg" version="1.1">
 <metadata>
  <rdf:RDF xmlns:dc="http://purl.org/dc/elements/1.1/" xmlns:cc="http://creativecommons.org/ns#" xmlns:rdf="http://www.w3.org/1999/02/22-rdf-syntax-ns#">
   <cc:Work>
    <dc:type rdf:resource="http://purl.org/dc/dcmitype/StillImage"/>
    <dc:date>2026-09-22T15:53:35.482406</dc:date>
    <dc:format>image/svg+xml</dc:format>
    <dc:creator>
     <cc:Agent>
      <dc:title>Matplotlib v3.9.4, https://matplotlib.org/</dc:title>
     </cc:Agent>
    </dc:creator>
   </cc:Work>
  </rdf:RDF>
 </metadata>
 <defs>
  <style type="text/css">*{stroke-linejoin: round; stroke-linecap: butt}</style>
 </defs>
 <g id="figure_1">
  <g id="patch_1">
   <path d="M 0 180.345744 
L 391.5125 180.345744 
L 391.5125 0 
L 0 0 
z
" style="fill: #ffffff"/>
  </g>
  <g id="axes_1">
   <g id="patch_2">
    <path d="M 70.1225 146.246681 
L 379.0025 146.246681 
L 379.0025 26.906681 
L 70.1225 26.906681 
z
" style="fill: #ffffff"/>
   </g>
   <g id="matplotlib.axis_1">
    <g id="xtick_1">
     <g id="line2d_1">
      <path d="M 70.1225 146.246681 
L 70.1225 26.906681 
" clip-path="url(#p3fe017bc89)" style="fill: none; stroke: #e7e9eb; stroke-width: 0.5; stroke-linecap: square"/>
     </g>
     <g id="line2d_2">
      <defs>
       <path id="m866ffa9170" d="M 0 0 
L 0 3.5 
" style="stroke: #000000; stroke-width: 0.6"/>
      </defs>
      <g>
       <use xlink:href="#m866ffa9170" x="70.1225" y="146.246681" style="stroke: #000000; stroke-width: 0.6"/>
      </g>
     </g>
     <g id="text_1">
      <text style="font: 9px 'STIXGeneral', serif; text-anchor: middle" x="70.1225" y="159.3934" transform="rotate(-0 70.1225 159.3934)">0</text>
     </g>
    </g>
    <g id="xtick_2">
     <g id="line2d_3">
      <path d="M 131.8985 146.246681 
L 131.8985 26.906681 
" clip-path="url(#p3fe017bc89)" style="fill: none; stroke: #e7e9eb; stroke-width: 0.5; stroke-linecap: square"/>
     </g>
     <g id="line2d_4">
      <g>
       <use xlink:href="#m866ffa9170" x="131.8985" y="146.246681" style="stroke: #000000; stroke-width: 0.6"/>
      </g>
     </g>
     <g id="text_2">
      <text style="font: 9px 'STIXGeneral', serif; text-anchor: middle" x="131.8985" y="159.3934" transform="rotate(-0 131.8985 159.3934)">20</text>
     </g>
    </g>
    <g id="xtick_3">
     <g id="line2d_5">
      <path d="M 193.6745 146.246681 
L 193.6745 26.906681 
" clip-path="url(#p3fe017bc89)" style="fill: none; stroke: #e7e9eb; stroke-width: 0.5; stroke-linecap: square"/>
     </g>
     <g id="line2d_6">
      <g>
       <use xlink:href="#m866ffa9170" x="193.6745" y="146.246681" style="stroke: #000000; stroke-width: 0.6"/>
      </g>
     </g>
     <g id="text_3">
      <text style="font: 9px 'STIXGeneral', serif; text-anchor: middle" x="193.6745" y="159.3934" transform="rotate(-0 193.6745 159.3934)">40</text>
     </g>
    </g>
    <g id="xtick_4">
     <g id="line2d_7">
      <path d="M 255.4505 146.246681 
L 255.4505 26.906681 
" clip-path="url(#p3fe017bc89)" style="fill: none; stroke: #e7e9eb; stroke-width: 0.5; stroke-linecap: square"/>
     </g>
     <g id="line2d_8">
      <g>
       <use xlink:href="#m866ffa9170" x="255.4505" y="146.246681" style="stroke: #000000; stroke-width: 0.6"/>
      </g>
     </g>
     <g id="text_4">
      <text style="font: 9px 'STIXGeneral', serif; text-anchor: middle" x="255.4505" y="159.3934" transform="rotate(-0 255.4505 159.3934)">60</text>
     </g>
    </g>
    <g id="xtick_5">
     <g id="line2d_9">
      <path d="M 317.2265 146.246681 
L 317.2265 26.906681 
" clip-path="url(#p3fe017bc89)" style="fill: none; stroke: #e7e9eb; stroke-width: 0.5; stroke-linecap: square"/>
     </g>
     <g id="line2d_10">
      <g>
       <use xlink:href="#m866ffa9170" x="317.2265" y="146.246681" style="stroke: #000000; stroke-width: 0.6"/>
      </g>
     </g>
     <g id="text_5">
      <text style="font: 9px 'STIXGeneral', serif; text-anchor: middle" x="317.2265" y="159.3934" transform="rotate(-0 317.2265 159.3934)">80</text>
     </g>
    </g>
    <g id="xtick_6">
     <g id="line2d_11">
      <path d="M 379.0025 146.246681 
L 379.0025 26.906681 
" clip-path="url(#p3fe017bc89)" style="fill: none; stroke: #e7e9eb; stroke-width: 0.5; stroke-linecap: square"/>
     </g>
     <g id="line2d_12">
      <g>
       <use xlink:href="#m866ffa9170" x="379.0025" y="146.246681" style="stroke: #000000; stroke-width: 0.6"/>
      </g>
     </g>
     <g id="text_6">
      <text style="font: 9px 'STIXGeneral', serif; text-anchor: middle" x="379.0025" y="159.3934" transform="rotate(-0 379.0025 159.3934)">100</text>
     </g>
    </g>
    <g id="text_7">
     <text style="font: 10px 'STIXGeneral', serif; text-anchor: middle" x="224.5625" y="172.406056" transform="rotate(-0 224.5625 172.406056)">Reference-label agreement (%)</text>
    </g>
   </g>
   <g id="matplotlib.axis_2">
    <g id="ytick_1">
     <g id="line2d_13"/>
     <g id="text_8">
      <text style="font: 10px 'STIXGeneral', serif; text-anchor: end" x="62.1225" y="48.001525" transform="rotate(-0 62.1225 48.001525)">Overall</text>
     </g>
    </g>
    <g id="ytick_2">
     <g id="line2d_14"/>
     <g id="text_9">
      <text style="font: 10px 'STIXGeneral', serif; text-anchor: end" x="62.1225" y="77.468192" transform="rotate(-0 62.1225 77.468192)">Choice</text>
     </g>
    </g>
    <g id="ytick_3">
     <g id="line2d_15"/>
     <g id="text_10">
      <text style="font: 10px 'STIXGeneral', serif; text-anchor: end" x="62.1225" y="106.934858" transform="rotate(-0 62.1225 106.934858)">Boolean</text>
     </g>
    </g>
    <g id="ytick_4">
     <g id="line2d_16"/>
     <g id="text_11">
      <text style="font: 10px 'STIXGeneral', serif; text-anchor: end" x="62.1225" y="136.401525" transform="rotate(-0 62.1225 136.401525)">Ordered score</text>
     </g>
    </g>
   </g>
   <g id="line2d_17">
    <path d="M 210.35402 44.586681 
L 281.7053 44.586681 
" clip-path="url(#p3fe017bc89)" style="fill: none; stroke: #bdcaca; stroke-width: 1.5; stroke-linecap: square"/>
   </g>
   <g id="line2d_18">
    <path d="M 222.40034 74.053348 
L 256.37714 74.053348 
" clip-path="url(#p3fe017bc89)" style="fill: none; stroke: #bdcaca; stroke-width: 1.5; stroke-linecap: square"/>
   </g>
   <g id="line2d_19">
    <path d="M 246.1841 103.520015 
L 332.97938 103.520015 
" clip-path="url(#p3fe017bc89)" style="fill: none; stroke: #bdcaca; stroke-width: 1.5; stroke-linecap: square"/>
   </g>
   <g id="line2d_20">
    <path d="M 118.30778 132.986681 
L 248.65514 132.986681 
" clip-path="url(#p3fe017bc89)" style="fill: none; stroke: #bdcaca; stroke-width: 1.5; stroke-linecap: square"/>
   </g>
   <g id="patch_3">
    <path d="M 70.1225 146.246681 
L 379.0025 146.246681 
" style="fill: none; stroke: #000000; stroke-width: 0.65; stroke-linejoin: miter; stroke-linecap: square"/>
   </g>
   <g id="PathCollection_1">
    <defs>
     <path id="mbcf8060761" d="M 0 2.692582 
C 0.714081 2.692582 1.399012 2.408875 1.903943 1.903943 
C 2.408875 1.399012 2.692582 0.714081 2.692582 0 
C 2.692582 -0.714081 2.408875 -1.399012 1.903943 -1.903943 
C 1.399012 -2.408875 0.714081 -2.692582 0 -2.692582 
C -0.714081 -2.692582 -1.399012 -2.408875 -1.903943 -1.903943 
C -2.408875 -1.399012 -2.692582 -0.714081 -2.692582 0 
C -2.692582 0.714081 -2.408875 1.399012 -1.903943 1.903943 
C -1.399012 2.408875 -0.714081 2.692582 0 2.692582 
z
" style="stroke: #92999f; stroke-width: 1.2"/>
    </defs>
    <g clip-path="url(#p3fe017bc89)">
     <use xlink:href="#mbcf8060761" x="210.35402" y="44.586681" style="fill: #ffffff; stroke: #92999f; stroke-width: 1.2"/>
    </g>
   </g>
   <g id="PathCollection_2">
    <defs>
     <path id="m38867319b4" d="M 0 2.828427 
C 0.750108 2.828427 1.469594 2.530406 2 2 
C 2.530406 1.469594 2.828427 0.750108 2.828427 0 
C 2.828427 -0.750108 2.530406 -1.469594 2 -2 
C 1.469594 -2.530406 0.750108 -2.828427 0 -2.828427 
C -0.750108 -2.828427 -1.469594 -2.530406 -2 -2 
C -2.530406 -1.469594 -2.828427 -0.750108 -2.828427 0 
C -2.828427 0.750108 -2.530406 1.469594 -2 2 
C -1.469594 2.530406 -0.750108 2.828427 0 2.828427 
z
"/>
    </defs>
    <g clip-path="url(#p3fe017bc89)">
     <use xlink:href="#m38867319b4" x="281.7053" y="44.586681" style="fill: #177b79"/>
    </g>
   </g>
   <g id="text_12">
    <text style="fill: #626a71; font: 9px 'STIXGeneral', serif; text-anchor: middle" x="210.35402" y="37.586681" transform="rotate(-0 210.35402 37.586681)">45.4</text>
   </g>
   <g id="text_13">
    <text style="fill: #177b79; font: 9px 'STIXGeneral', serif; text-anchor: middle" x="281.7053" y="37.586681" transform="rotate(-0 281.7053 37.586681)">68.5</text>
   </g>
   <g id="PathCollection_3">
    <g clip-path="url(#p3fe017bc89)">
     <use xlink:href="#mbcf8060761" x="222.40034" y="74.053348" style="fill: #ffffff; stroke: #92999f; stroke-width: 1.2"/>
    </g>
   </g>
   <g id="PathCollection_4">
    <g clip-path="url(#p3fe017bc89)">
     <use xlink:href="#m38867319b4" x="256.37714" y="74.053348" style="fill: #177b79"/>
    </g>
   </g>
   <g id="text_14">
    <text style="fill: #626a71; font: 9px 'STIXGeneral', serif; text-anchor: middle" x="222.40034" y="67.053348" transform="rotate(-0 222.40034 67.053348)">49.3</text>
   </g>
   <g id="text_15">
    <text style="fill: #177b79; font: 9px 'STIXGeneral', serif; text-anchor: middle" x="256.37714" y="67.053348" transform="rotate(-0 256.37714 67.053348)">60.3</text>
   </g>
   <g id="PathCollection_5">
    <g clip-path="url(#p3fe017bc89)">
     <use xlink:href="#mbcf8060761" x="246.1841" y="103.520015" style="fill: #ffffff; stroke: #92999f; stroke-width: 1.2"/>
    </g>
   </g>
   <g id="PathCollection_6">
    <g clip-path="url(#p3fe017bc89)">
     <use xlink:href="#m38867319b4" x="332.97938" y="103.520015" style="fill: #177b79"/>
    </g>
   </g>
   <g id="text_16">
    <text style="fill: #626a71; font: 9px 'STIXGeneral', serif; text-anchor: middle" x="246.1841" y="96.520015" transform="rotate(-0 246.1841 96.520015)">57.0</text>
   </g>
   <g id="text_17">
    <text style="fill: #177b79; font: 9px 'STIXGeneral', serif; text-anchor: middle" x="332.97938" y="96.520015" transform="rotate(-0 332.97938 96.520015)">85.1</text>
   </g>
   <g id="PathCollection_7">
    <g clip-path="url(#p3fe017bc89)">
     <use xlink:href="#mbcf8060761" x="118.30778" y="132.986681" style="fill: #ffffff; stroke: #92999f; stroke-width: 1.2"/>
    </g>
   </g>
   <g id="PathCollection_8">
    <g clip-path="url(#p3fe017bc89)">
     <use xlink:href="#m38867319b4" x="248.65514" y="132.986681" style="fill: #177b79"/>
    </g>
   </g>
   <g id="text_18">
    <text style="fill: #626a71; font: 9px 'STIXGeneral', serif; text-anchor: middle" x="118.30778" y="125.986681" transform="rotate(-0 118.30778 125.986681)">15.6</text>
   </g>
   <g id="text_19">
    <text style="fill: #177b79; font: 9px 'STIXGeneral', serif; text-anchor: middle" x="248.65514" y="125.986681" transform="rotate(-0 248.65514 125.986681)">57.8</text>
   </g>
   <g id="legend_1">
    <g id="line2d_21">
     <defs>
      <path id="m02b718a3d9" d="M 0 2.5 
C 0.663008 2.5 1.29895 2.236584 1.767767 1.767767 
C 2.236584 1.29895 2.5 0.663008 2.5 0 
C 2.5 -0.663008 2.236584 -1.29895 1.767767 -1.767767 
C 1.29895 -2.236584 0.663008 -2.5 0 -2.5 
C -0.663008 -2.5 -1.29895 -2.236584 -1.767767 -1.767767 
C -2.236584 -1.29895 -2.5 -0.663008 -2.5 0 
C -2.5 0.663008 -2.236584 1.29895 -1.767767 1.767767 
C -1.29895 2.236584 -0.663008 2.5 0 2.5 
z
" style="stroke: #92999f"/>
     </defs>
     <g>
      <use xlink:href="#m02b718a3d9" x="159.463672" y="12.51" style="fill: #ffffff; stroke: #92999f"/>
     </g>
    </g>
    <g id="text_20">
     <text style="font: 9px 'STIXGeneral', serif; text-anchor: start" x="172.063672" y="15.66" transform="rotate(-0 172.063672 15.66)">Base 0.8B</text>
    </g>
    <g id="line2d_22">
     <defs>
      <path id="ma3491c6e24" d="M 0 2.5 
C 0.663008 2.5 1.29895 2.236584 1.767767 1.767767 
C 2.236584 1.29895 2.5 0.663008 2.5 0 
C 2.5 -0.663008 2.236584 -1.29895 1.767767 -1.767767 
C 1.29895 -2.236584 0.663008 -2.5 0 -2.5 
C -0.663008 -2.5 -1.29895 -2.236584 -1.767767 -1.767767 
C -2.236584 -1.29895 -2.5 -0.663008 -2.5 0 
C -2.5 0.663008 -2.236584 1.29895 -1.767767 1.767767 
C -1.29895 2.236584 -0.663008 2.5 0 2.5 
z
" style="stroke: #177b79"/>
     </defs>
     <g>
      <use xlink:href="#ma3491c6e24" x="236.064922" y="12.51" style="fill: #177b79; stroke: #177b79"/>
     </g>
    </g>
    <g id="text_21">
     <text style="font: 9px 'STIXGeneral', serif; text-anchor: start" x="248.664922" y="15.66" transform="rotate(-0 248.664922 15.66)">Adapted 0.8B</text>
    </g>
   </g>
  </g>
 </g>
 <defs>
  <clipPath id="p3fe017bc89">
   <rect x="70.1225" y="26.906681" width="308.88" height="119.34"/>
  </clipPath>
 </defs>
</svg>
